<?xml version="1.0" standalone="no"?>
<!DOCTYPE svg PUBLIC "-//W3C//DTD SVG 20010904//EN"
 "http://www.w3.org/TR/2001/REC-SVG-20010904/DTD/svg10.dtd">
<svg version="1.0" xmlns="http://www.w3.org/2000/svg"
 width="273.000000pt" height="273.000000pt" viewBox="0 0 273.000000 273.000000"
 preserveAspectRatio="xMidYMid meet">
<metadata>
Created by potrace 1.16, written by Peter Selinger 2001-2019
</metadata>
<g transform="translate(0.000000,273.000000) scale(0.100000,-0.100000)"
fill="#000000" stroke="none">
<path d="M1154 2329 c-238 -40 -474 -180 -631 -373 -238 -296 -294 -707 -143
-1058 103 -240 318 -454 553 -550 152 -62 215 -73 407 -72 160 1 183 3 265 28
195 58 333 141 475 285 194 198 290 434 290 716 0 290 -98 524 -304 731 -155
155 -315 242 -521 285 -96 20 -295 24 -391 8z m411 -114 c169 -43 290 -111
419 -234 332 -320 386 -829 127 -1203 -47 -69 -166 -197 -174 -187 -2 2 -18
27 -36 56 -53 85 -168 186 -263 232 -106 51 -190 71 -304 71 -161 0 -312 -54
-437 -158 -58 -48 -141 -148 -152 -183 -4 -10 -10 -19 -14 -19 -12 0 -129 122
-167 175 -118 165 -185 405 -170 605 30 390 292 718 666 834 166 52 330 56
505 11z"/>
<path d="M1209 1791 c-105 -33 -185 -108 -237 -219 -23 -49 -27 -70 -27 -152
0 -82 4 -103 27 -152 36 -76 70 -121 128 -163 209 -153 506 -66 603 178 26 67
28 201 3 267 -42 114 -146 211 -259 245 -67 20 -169 18 -238 -4z"/>
</g>
</svg>
